/* XPM */
static char * close_xpm[] = {
"22 22 423 2",
"  	c None",
". 	c #F1F1FB",
"+ 	c #F0F0FA",
"@ 	c #F4F4FE",
"# 	c #F4F4FC",
"$ 	c #F2F2FA",
"% 	c #F1F1F9",
"& 	c #F6F5FD",
"* 	c #F4F3FB",
"= 	c #F3F2FA",
"- 	c #F3F5F4",
"; 	c #F1F3F2",
"> 	c #F4F6F5",
", 	c #F2F4F3",
"' 	c #EFF1F0",
") 	c #F5F6F8",
"! 	c #F1F2F4",
"~ 	c #F6F7F9",
"{ 	c #F4F5F7",
"] 	c #F3F4F6",
"^ 	c #EEEFF1",
"/ 	c #F7F8FA",
"( 	c #E5E6E8",
"_ 	c #F0F0F2",
": 	c #F0F0F0",
"< 	c #EDEBEC",
"[ 	c #F5F3F4",
"} 	c #F1F3EE",
"| 	c #EBEDE8",
"1 	c #F0F2EF",
"2 	c #F2F4F1",
"3 	c #EFF1EE",
"4 	c #EAECE9",
"5 	c #EEF0ED",
"6 	c #ECF0EF",
"7 	c #ECEEEB",
"8 	c #E9EBE8",
"9 	c #F0F1EC",
"0 	c #E4E5E0",
"a 	c #F2F1ED",
"b 	c #F3F2EE",
"c 	c #ECE8E5",
"d 	c #EAE6E3",
"e 	c #E9E9E7",
"f 	c #EDEDEB",
"g 	c #E4E6E3",
"h 	c #F4F6F3",
"i 	c #E7E9E6",
"j 	c #F3F5F2",
"k 	c #E9EDEC",
"l 	c #EAEEED",
"m 	c #E6E8E3",
"n 	c #EFF0EB",
"o 	c #EAEBE5",
"p 	c #ECEBE6",
"q 	c #EFECE7",
"r 	c #E8E3DF",
"s 	c #F3EEEA",
"t 	c #F7F2EE",
"u 	c #EAE8E9",
"v 	c #ECEAEB",
"w 	c #F6F4F5",
"x 	c #E7E5E6",
"y 	c #E9E9E9",
"z 	c #F2F2F2",
"A 	c #EAEAEA",
"B 	c #E2E4E3",
"C 	c #E9EBEA",
"D 	c #EAEBED",
"E 	c #E9EDEE",
"F 	c #E8ECED",
"G 	c #EAECE7",
"H 	c #EEF0EB",
"I 	c #E9EAE5",
"J 	c #EAE9E5",
"K 	c #F2EEEB",
"L 	c #E9E4E1",
"M 	c #EFE7E5",
"N 	c #F2EAE8",
"O 	c #E7DDDC",
"P 	c #F0EAEC",
"Q 	c #EDE7E9",
"R 	c #ECE6E8",
"S 	c #EEEAEB",
"T 	c #ECE8E9",
"U 	c #EFEAEE",
"V 	c #EBE9EC",
"W 	c #F0EEF1",
"X 	c #E9E9EB",
"Y 	c #EAEAEC",
"Z 	c #E9EAEC",
"` 	c #E6EAEB",
" .	c #EAEAE8",
"..	c #E9E8E6",
"+.	c #ECEBE9",
"@.	c #EAE4E4",
"#.	c #F2E9EA",
"$.	c #F8EEEF",
"%.	c #EEE4E5",
"&.	c #FAEEF0",
"*.	c #EDE2E6",
"=.	c #F4E9ED",
"-.	c #E6DDE0",
";.	c #F4EBEE",
">.	c #F1E8EB",
",.	c #EAE4E6",
"'.	c #EFE9EB",
").	c #E9E5E6",
"!.	c #EBE9EA",
"~.	c #E8E8EA",
"{.	c #E8E9EB",
"].	c #E2E2E2",
"^.	c #E6E4E5",
"/.	c #EAE6E7",
"(.	c #E9E3E5",
"_.	c #E5DADE",
":.	c #F1E5E9",
"<.	c #EADBE0",
"[.	c #EFE3E3",
"}.	c #EEE2E2",
"|.	c #F3E7E7",
"1.	c #EBDFDF",
"2.	c #ECE2E3",
"3.	c #EBE1E2",
"4.	c #EDE4E5",
"5.	c #EBE5E5",
"6.	c #ECE8E7",
"7.	c #E9E5E4",
"8.	c #E5E4E2",
"9.	c #E5E5E3",
"0.	c #E8E8E8",
"a.	c #E7E7E9",
"b.	c #DBDBDD",
"c.	c #E5E3E6",
"d.	c #E8E3E7",
"e.	c #E3DDE1",
"f.	c #E9DEE4",
"g.	c #ECDFE6",
"h.	c #EDE0E7",
"i.	c #35262D",
"j.	c #7D6F6E",
"k.	c #F0E2E1",
"l.	c #E8DAD9",
"m.	c #867877",
"n.	c #352929",
"o.	c #EBE1E0",
"p.	c #E9DFDE",
"q.	c #E6DEDC",
"r.	c #E4E0DD",
"s.	c #E2DEDB",
"t.	c #E1E0DC",
"u.	c #D4D5D7",
"v.	c #DCDEDD",
"w.	c #DEDEDC",
"x.	c #E8E4E1",
"y.	c #E6DEDB",
"z.	c #E4D9D5",
"A.	c #ECDFD9",
"B.	c #AB9C97",
"C.	c #980E03",
"D.	c #D75347",
"E.	c #D25D54",
"F.	c #721B12",
"G.	c #C7958A",
"H.	c #EADACD",
"I.	c #DFE2D9",
"J.	c #DFE3E2",
"K.	c #E1DCE3",
"L.	c #EEDEEB",
"M.	c #E8D8E5",
"N.	c #D9D2DA",
"O.	c #E6E7E9",
"P.	c #C7C8CA",
"Q.	c #E1E3E2",
"R.	c #E1E1DF",
"S.	c #E3DFDC",
"T.	c #E4DCD9",
"U.	c #EADFDB",
"V.	c #E9DBD8",
"W.	c #F3E4DF",
"X.	c #FF7E73",
"Y.	c #94140B",
"Z.	c #8A1911",
"`.	c #E38C85",
" +	c #FFD5CC",
".+	c #F2E1D7",
"++	c #E1E4DB",
"@+	c #DEE2E1",
"#+	c #DFDDE2",
"$+	c #E9DDE9",
"%+	c #E6DAE4",
"&+	c #C8C6CB",
"*+	c #E1EAE9",
"=+	c #ECECEE",
"-+	c #C0C1C3",
";+	c #DDDDDB",
">+	c #E1DDDA",
",+	c #DED9D5",
"'+	c #E4DBD6",
")+	c #E4D6D3",
"!+	c #E7D8D3",
"~+	c #EC736A",
"{+	c #A02B24",
"]+	c #9C3530",
"^+	c #C77873",
"/+	c #FFD4CC",
"(+	c #E6D5CD",
"_+	c #D5D6D0",
":+	c #DDE1E0",
"<+	c #DCDBE0",
"[+	c #E1DAE2",
"}+	c #DED9E0",
"|+	c #BBBFC2",
"1+	c #E1EDEB",
"2+	c #EBEBED",
"3+	c #BBBCBE",
"4+	c #D3D5D4",
"5+	c #D5D5D3",
"6+	c #E0DFDD",
"7+	c #DBD6D3",
"8+	c #DAD0CE",
"9+	c #E7D9D6",
"0+	c #8B7C79",
"a+	c #8A2C24",
"b+	c #E78D85",
"c+	c #EA9791",
"d+	c #773632",
"e+	c #99726B",
"f+	c #E8DBD3",
"g+	c #D9DAD4",
"h+	c #D2D6D5",
"i+	c #D9D8DD",
"j+	c #D9D7DC",
"k+	c #D3D2D7",
"l+	c #B9BEC1",
"m+	c #E3EFEB",
"n+	c #AAABAD",
"o+	c #DADCDB",
"p+	c #D4D4D2",
"q+	c #D5D4D2",
"r+	c #D9D4D1",
"s+	c #E2D8D6",
"t+	c #DDD2D0",
"u+	c #564845",
"v+	c #D2998E",
"w+	c #FFD6CD",
"x+	c #FFCBC3",
"y+	c #CDA49E",
"z+	c #624944",
"A+	c #DAD3CB",
"B+	c #D1D6D0",
"C+	c #D5DBD9",
"D+	c #D5D6D8",
"E+	c #D7D5DA",
"F+	c #D6D4D7",
"G+	c #AFB3B4",
"H+	c #E8EEEC",
"I+	c #A6A7A9",
"J+	c #D5D7D6",
"K+	c #D3D3D3",
"L+	c #DAD9D7",
"M+	c #D6D2CF",
"N+	c #D0C8C5",
"O+	c #DFD4D2",
"P+	c #EEE3E1",
"Q+	c #F2DFD1",
"R+	c #E2CCC1",
"S+	c #E1CAC2",
"T+	c #EDDAD3",
"U+	c #EBE2DB",
"V+	c #DAD9D4",
"W+	c #CED3CF",
"X+	c #D4D4D4",
"Y+	c #D7D5D8",
"Z+	c #A5A3A4",
"`+	c #EDEDEF",
" @	c #A5A6A8",
".@	c #CCCECD",
"+@	c #CAC9C7",
"@@	c #D4D0CD",
"#@	c #E1D9D7",
"$@	c #D1C7C5",
"%@	c #E0D5D3",
"&@	c #CBD1C5",
"*@	c #CED0C5",
"=@	c #D8D5CC",
"-@	c #DBD8D1",
";@	c #CDCCC7",
">@	c #C7C8C3",
",@	c #DCDEDB",
"'@	c #CDCFCC",
")@	c #D1D1D1",
"!@	c #D0CECF",
"~@	c #C9C7C8",
"{@	c #ABA9AA",
"]@	c #EFEBEC",
"^@	c #BABABA",
"/@	c #AFB1B0",
"(@	c #C9CBCA",
"_@	c #D0D0CE",
":@	c #D1D0CE",
"<@	c #CFCAC7",
"[@	c #D1C9C7",
"}@	c #D5CBCA",
"|@	c #C4D1C8",
"1@	c #CAD4CC",
"2@	c #C9CECA",
"3@	c #CACAC8",
"4@	c #D6D2D1",
"5@	c #D3CFCE",
"6@	c #C9C5C4",
"7@	c #D0CFCD",
"8@	c #CECECC",
"9@	c #C7C7C7",
"0@	c #B3B5B4",
"a@	c #BABCB9",
"b@	c #EFEEEC",
"c@	c #E7E7E7",
"d@	c #E4E4E4",
"e@	c #BBBDBC",
"f@	c #969897",
"g@	c #8E8E8C",
"h@	c #949391",
"i@	c #959190",
"j@	c #978F8D",
"k@	c #99918F",
"l@	c #8C9594",
"m@	c #8E9494",
"n@	c #919294",
"o@	c #959094",
"p@	c #988F92",
"q@	c #998E92",
"r@	c #969092",
"s@	c #8D8D8B",
"t@	c #959A96",
"u@	c #B2BBB6",
"v@	c #D9E2DD",
"w@	c #EAF0EC",
"x@	c #E5E5E5",
"y@	c #EEEEEE",
"z@	c #ECEEED",
"A@	c #EEF0EF",
"B@	c #F5F5F5",
"C@	c #F7F6F4",
"D@	c #F5F1F0",
"E@	c #F5EFEF",
"F@	c #F8F2F2",
"G@	c #F2F3F7",
"H@	c #F3F2F7",
"I@	c #F7F1F5",
"J@	c #FAEFF5",
"K@	c #FEEDF3",
"L@	c #FDEEF3",
"M@	c #FAEFF3",
"N@	c #F8F8F6",
"O@	c #EFF5F1",
"P@	c #E8F3ED",
"Q@	c #E7F2EC",
"R@	c #E1EAE5",
"S@	c #DEDCDD",
"T@	c #DEDEDE",
"U@	c #E3E5E4",
"V@	c #E6E8E7",
"W@	c #E4E6E5",
"X@	c #E5E6EA",
"Y@	c #E7E5EA",
"Z@	c #ECE3E8",
"`@	c #F0E1E8",
" #	c #F0E1E6",
".#	c #E0E6E2",
"+#	c #DEE7E2",
"@#	c #DDE3DF",
"##	c #DDE2DE",
"$#	c #E0DEDF",
"%#	c #E0E2E1",
"&#	c #DDDFDE",
"*#	c #DFDFDF",
"=#	c #E3E1E2",
"-#	c #E4E0E1",
";#	c #DFDBDC",
">#	c #DCE0E3",
",#	c #D9E1E3",
"'#	c #D8E2E1",
")#	c #D9E2E1",
"!#	c #DFDFE1",
"~#	c #E5DCE1",
"{#	c #E7DBDF",
"]#	c #E5DCDF",
"^#	c #E0E4E3",
"/#	c #E2DCDE",
"(#	c #DFDDDE",
"_#	c #DADADA",
":#	c #DBDDDC",
"<#	c #DEE0DF",
"[#	c #DDDDDD",
"}#	c #E3DFE0",
"|#	c #DBDFDE",
"1#	c #D7E2DE",
"2#	c #D3E4DE",
"3#	c #D4E3DE",
"4#	c #D8E1DE",
"5#	c #E4DBDE",
"6#	c #E3DADD",
"7#	c #E6D7DC",
"8#	c #DBD9DA",
"9#	c #E1E1E1",
"0#	c #DADEDD",
"a#	c #D9D9DB",
"b#	c #DCDADD",
"c#	c #E0DEE1",
"d#	c #DDDCDA",
"e#	c #D8DEDA",
"f#	c #D2E1DA",
"g#	c #D1E2DA",
"h#	c #D5E0DC",
"i#	c #DCDCDC",
"j#	c #DFDADE",
"k#	c #DDDBDE",
"l#	c #DDDEE0",
"m#	c #DADEDF",
"n#	c #DFDDE0",
"o#	c #E7DCE0",
"p#	c #EBDAE0",
". + @ # $ % & * = - ; > , ' ) ! ~ ) { ] ] ] ",
"^ / ( ! _ : : < [ } } | 1 2 3 1 4 3 5 5 6 6 ",
"7 8 | 9 0 a b c d e f g h g 8 i j 4 k l l k ",
"| m n o p q r s t u v w x y z A B C D E E F ",
"G H I J K L M N O P Q R S T U V W X Y Z Z ` ",
"4  ...+.@.#.$.%.&.*.=.-.;.>.,.'.).!.u ~.X {.",
"Z ].^./.(.;._.:.<.[.}.|.1.2.3.4.5.6.7.8.9.0.",
"a.b.c.d.e.f.g.h.i.j.k.l.m.n.o.p.q.L r.s.t.9.",
"a.u.v.w.x.y.z.A.B.C.D.E.F.G.H.I.J.K.L.M.N.O.",
"Y P.Q.R.S.T.U.V.W.X.Y.Z.`. +.+++@+#+$+%+&+*+",
"=+-+v.;+>+,+'+)+!+~+{+]+^+/+(+_+:+<+[+}+|+1+",
"2+3+4+5+6+7+8+9+0+a+b+c+d+e+f+g+h+i+j+k+l+m+",
"X n+o+p+q+r+s+t+u+v+w+x+y+z+A+B+C+D+E+F+G+H+",
"Y I+J+K+L+M+N+O+P+Q+R+S+T+U+V+B+W+X+F+Y+Z+< ",
"`+ @.@K++@@@#@$@%@&@*@=@-@;@>@,@'@)@!@~@{@]@",
"_ ^@/@(@_@:@<@[@}@|@1@2@3@4@5@6@7@8@9@0@a@b@",
"c@d@e@f@g@h@i@j@k@l@m@n@o@p@q@q@r@s@t@u@v@w@",
"x@y@z@A@B@C@D@E@F@G@G@H@I@J@K@L@M@N@O@P@Q@R@",
"S@T@U@V@W@d@^./.5.X@X@X@Y@Z@`@ #*.]..#+#@###",
"$#].B %#&#*#=#-#;#>#,#'#)#!#~#{#]#*#^#B $#/#",
"(#_#:#&#<#&#[#(#}#|#1#2#3#4#(#5#/#T@&#S@6#7#",
"8#9#&#0#&#:#a#b#c#d#e#f#g#h#i#j#k#l#m#n#o#p#"};
