/* XPM */
static char * maximize_xpm[] = {
"22 22 200 2",
"  	c None",
". 	c #F3F4EF",
"+ 	c #F0EFEB",
"@ 	c #F9F8F4",
"# 	c #F5F4F0",
"$ 	c #F2F1ED",
"% 	c #FCFBF7",
"& 	c #F6F5F1",
"* 	c #F8F7F3",
"= 	c #F4F3EF",
"- 	c #F3F2EE",
"; 	c #F7F8F3",
"> 	c #F7F7F5",
", 	c #EEEEEC",
"' 	c #F7F7F7",
") 	c #F3F3F3",
"! 	c #F6F6F6",
"~ 	c #F6F6F8",
"{ 	c #F6F3FA",
"] 	c #F5F2F9",
"^ 	c #F4F3F9",
"/ 	c #F4F3FB",
"( 	c #EEF0EF",
"_ 	c #F7F6F4",
": 	c #EAE9E7",
"< 	c #EFEEEC",
"[ 	c #F4F3F1",
"} 	c #EBEAE8",
"| 	c #E9E9E7",
"1 	c #F0F0EE",
"2 	c #F1F1EF",
"3 	c #E5E5E3",
"4 	c #F8F8F6",
"5 	c #EBEBEB",
"6 	c #EEEEEE",
"7 	c #EAEAEA",
"8 	c #F0EEEF",
"9 	c #EFEFEF",
"0 	c #EFEFF1",
"a 	c #EAEEEF",
"b 	c #E8E8E8",
"c 	c #ECECEC",
"d 	c #EBEBE9",
"e 	c #F5F5F3",
"f 	c #ECECEA",
"g 	c #EAEAE8",
"h 	c #EDEDEB",
"i 	c #EDEDED",
"j 	c #E9E9E9",
"k 	c #EDECE8",
"l 	c #EDECEA",
"m 	c #E8ECED",
"n 	c #DFDFDF",
"o 	c #E6E6E6",
"p 	c #F1F1F1",
"q 	c #E5E5E5",
"r 	c #ECEBE7",
"s 	c #ECEDE8",
"t 	c #EBECE7",
"u 	c #E9EAEC",
"v 	c #F0F0F0",
"w 	c #E7E7E7",
"x 	c #E9EBEA",
"y 	c #EBEDEC",
"z 	c #E2E4E3",
"A 	c #E3E5E4",
"B 	c #EDEFEE",
"C 	c #DCDDDF",
"D 	c #F1F2F4",
"E 	c #E3E3E5",
"F 	c #EAEAEC",
"G 	c #F2F2F2",
"H 	c #E0E0E0",
"I 	c #ECEAEB",
"J 	c #E9E7E8",
"K 	c #EBE9EA",
"L 	c #E7E9E8",
"M 	c #E0E2E1",
"N 	c #E7E8EA",
"O 	c #E3E4E6",
"P 	c #EAEBED",
"Q 	c #DFE0E2",
"R 	c #EFF0F2",
"S 	c #E1E2E4",
"T 	c #E9E9EB",
"U 	c #E7E7E9",
"V 	c #E0E0E2",
"W 	c #EAE8ED",
"X 	c #E6E4E9",
"Y 	c #E5E3E8",
"Z 	c #E8E8EA",
"` 	c #EBEBED",
" .	c #E8E7E5",
"..	c #D5D7D6",
"+.	c #E6E8E7",
"@.	c #DDDEE0",
"#.	c #E4E5E7",
"$.	c #111214",
"%.	c #0F1012",
"&.	c #141517",
"*.	c #141416",
"=.	c #18181A",
"-.	c #DEDEE0",
";.	c #E4E4E4",
">.	c #E6E3EA",
",.	c #E1DEE5",
"'.	c #DFDDE2",
").	c #E4E3E8",
"!.	c #E8E7EC",
"~.	c #D4D4D4",
"{.	c #DEDEDE",
"].	c #E1E1E1",
"^.	c #353535",
"/.	c #343434",
"(.	c #383838",
"_.	c #393939",
":.	c #333333",
"<.	c #E2E2E2",
"[.	c #E3E3E3",
"}.	c #E0E2DF",
"|.	c #DEE0DD",
"1.	c #CED0CD",
"2.	c #C9C9C9",
"3.	c #DCDCDC",
"4.	c #D9D9D9",
"5.	c #484848",
"6.	c #474747",
"7.	c #D7D7D7",
"8.	c #DBDDDA",
"9.	c #CECECC",
"0.	c #BFBFBF",
"a.	c #DADADA",
"b.	c #D8D8D8",
"c.	c #4B4B4B",
"d.	c #DCDEDB",
"e.	c #D7D9D6",
"f.	c #C7C7C5",
"g.	c #BEBEBE",
"h.	c #D2D2D2",
"i.	c #D3D3D3",
"j.	c #D6D6D6",
"k.	c #D5D5D5",
"l.	c #656565",
"m.	c #DBDBDB",
"n.	c #DDDDDD",
"o.	c #5E5E5E",
"p.	c #D6D8D5",
"q.	c #B9B9B7",
"r.	c #ADADAD",
"s.	c #D1D1D1",
"t.	c #686868",
"u.	c #2E2E2E",
"v.	c #323232",
"w.	c #313131",
"x.	c #6D6D6D",
"y.	c #D5D7D4",
"z.	c #D8DAD7",
"A.	c #ABABA9",
"B.	c #E8E6E7",
"C.	c #A6A6A6",
"D.	c #D0D0D0",
"E.	c #CBCBCB",
"F.	c #D3D5D2",
"G.	c #E4E2E3",
"H.	c #A4A4A4",
"I.	c #C7C7C7",
"J.	c #CFCFCF",
"K.	c #CECECE",
"L.	c #CCCCCC",
"M.	c #D0D2CF",
"N.	c #C3C5C2",
"O.	c #ACACAC",
"P.	c #E5E3E4",
"Q.	c #B7B7B7",
"R.	c #B3B3B3",
"S.	c #CDCDCD",
"T.	c #C8CAC7",
"U.	c #B2B4B1",
"V.	c #B5B5B5",
"W.	c #F1EFF0",
"X.	c #BBBBBB",
"Y.	c #999999",
"Z.	c #8E8E8E",
"`.	c #929292",
" +	c #949494",
".+	c #939393",
"++	c #969897",
"@+	c #BABCBB",
"#+	c #EFEDEE",
"$+	c #F9F9F9",
"%+	c #F4F4F4",
"&+	c #E2E0E1",
"*+	c #DEDCDD",
"=+	c #E8EAE9",
"-+	c #D6D8D7",
";+	c #DCDEDD",
">+	c #E2DEDF",
",+	c #DCDADB",
"'+	c #DFDBDC",
")+	c #DADCDB",
". + @ # $ % & * = - ; > , ' ) ! ~ { { ] ^ / ",
"( _ : < [ } } | 1 2 2 3 4 ) 5 6 7 8 8 8 9 0 ",
"a b c , d , e 1 f g h h i j 5 ' c k l l f f ",
"m c 9 5 j 6 n 5 b i o p 7 7 j q j r r r s t ",
"u c b j 5 6 6 v o 5 i w o 5 p j i } : : d g ",
"7 x y x z A B C D E F 7 w G H 7 q I J J 7 5 ",
"K L M L x N O P Q R S T U V j b b W X Y Z ` ",
" .x ..+.M @.O #.$.%.&.&.*.=.-.;.q >.,.'.).!.",
"q q ~.{.H ].{.q ^./.(._.:.^.<.n [.}.|.1.5 o ",
";.j 2.{.n q 3.4.5.p v 7 ) 6.;.7.[.}.8.9.q q ",
"o w 0.].a.7.n [.5.b.4.[.b.c.3.q 7.d.e.f.[.o ",
"7 b g.h.i.<.j.k.l.m.m.~.n.o.7.~.4.p.p.q.b j ",
"j i r.j.i.h.m.s.t.u._.v.w.x.i.4.4.y.z.A.9 B.",
"q i C.b.j.D.h.k.c 7 w p 6 [.4.E.~.y.F.C.p G.",
";.p H.I.~.D.a.J.K.h.~.E.L.D.j.L.i.M.N.O.v P.",
"b v Q.R.L.S.2.K.J.S.E.J.D.S.L.K.L.T.U.V.W.B.",
"q v n X.Y.Z.`. +.+`.`.`.`.`.`.`.`.++@+].#+B.",
"<.H j i 6 ! $+%+9 ) ) ) ) ) ) ) ) ( ( j &+*+",
"].<.b b o b o ;.q o o o o o o o o =+=+q &+&+",
"n.m.n.3.m.{.n.n q n n n n n n n n -+;+].&+>+",
"H n H H ].[.{.a.3.{.{.{.{.{.{.{.{.z M n.,+'+",
"3.H n a.4.3.3.m.n 3.3.3.3.3.3.3.3.)+)+3.*+>+"};
