/* XPM */
static char * minimize_xpm[] = {
"22 22 112 2",
"  	c None",
". 	c #F6F4F7",
"+ 	c #F5F3F6",
"@ 	c #F6F2F3",
"# 	c #F7F3F4",
"$ 	c #F8F4F3",
"% 	c #F7F3F2",
"& 	c #F5F4F2",
"* 	c #F7F6F4",
"= 	c #F5F5F3",
"- 	c #F4F5F0",
"; 	c #F5F6F1",
"> 	c #EFEFF1",
", 	c #EFEFEF",
"' 	c #F0EEEF",
") 	c #F0EFED",
"! 	c #EEF0EF",
"~ 	c #EFF1F0",
"{ 	c #EBEDEC",
"] 	c #ECEEED",
"^ 	c #EBECEE",
"/ 	c #E8ECED",
"( 	c #E9EDEE",
"_ 	c #EAEEEF",
": 	c #E9EBEA",
"< 	c #EAECEB",
"[ 	c #E7EBEC",
"} 	c #E8EAE9",
"| 	c #E9EAEC",
"1 	c #E8E9EB",
"2 	c #E7E9E8",
"3 	c #E9E9E9",
"4 	c #EAEAEA",
"5 	c #E8E8E8",
"6 	c #EBEBEB",
"7 	c #E5E5E5",
"8 	c #E7E7E7",
"9 	c #E6E6E6",
"0 	c #E7E7E5",
"a 	c #E8E7E5",
"b 	c #EAE9E7",
"c 	c #E7E6E4",
"d 	c #E5E4E2",
"e 	c #E6E5E3",
"f 	c #E9E7E8",
"g 	c #EBE9EA",
"h 	c #E4E4E4",
"i 	c #E0E0E0",
"j 	c #E3E3E3",
"k 	c #E1E1E1",
"l 	c #E4E3E1",
"m 	c #E2E1DF",
"n 	c #E0DFDD",
"o 	c #E1E0DE",
"p 	c #E9E8E6",
"q 	c #D5D5D5",
"r 	c #DCDCDC",
"s 	c #DEDEDE",
"t 	c #D7D7D7",
"u 	c #C9C9C9",
"v 	c #E2E2E2",
"w 	c #DBDBDB",
"x 	c #D8D8D8",
"y 	c #C0C0C0",
"z 	c #D9D9D9",
"A 	c #DADADA",
"B 	c #DDDDDD",
"C 	c #1D1D1D",
"D 	c #171717",
"E 	c #191919",
"F 	c #1A1A1A",
"G 	c #EDEDED",
"H 	c #BDBDBD",
"I 	c #D1D1D1",
"J 	c #D6D6D6",
"K 	c #595959",
"L 	c #575757",
"M 	c #5A5A5A",
"N 	c #565656",
"O 	c #535353",
"P 	c #DFDFDF",
"Q 	c #D4D4D4",
"R 	c #EEEEEE",
"S 	c #B2B2B2",
"T 	c #D2D2D2",
"U 	c #D3D3D3",
"V 	c #B1B1B1",
"W 	c #A6A6A6",
"X 	c #CDCDCD",
"Y 	c #D0D0D0",
"Z 	c #A2A2A2",
"` 	c #ECECEC",
" .	c #AAAAAA",
"..	c #C8C8C8",
"+.	c #CCCCCC",
"@.	c #C7C7C7",
"#.	c #A7A7A7",
"$.	c #B8B8B8",
"%.	c #B4B4B4",
"&.	c #CACACA",
"*.	c #CBCBCB",
"=.	c #CFCFCF",
"-.	c #B3B3B3",
";.	c #979797",
">.	c #909090",
",.	c #939393",
"'.	c #929292",
").	c #8E8E8E",
"!.	c #989898",
"~.	c #F3F3F3",
"{.	c #F5F5F5",
"].	c #F9F9F9",
". + @ @ # $ % % & & & & & & & & * = - - - ; ",
"> , , , , ' ) ) > > > , , ! ! ! ~ ! ! ! ! ! ",
"{ { ] ] { { { { ^ ^ ^ ^ ^ ^ ^ ^ / ( _ _ ( ( ",
": < { { < : < < ^ ^ ^ ^ ( ( ( ( [ / ( ( / [ ",
"} : : : } } } } | | | | | | | | 1 | | | 1 1 ",
"< : } 2 } } } 2 3 3 3 3 3 3 3 3 4 3 5 3 3 4 ",
"6 5 7 7 8 5 8 9 0 0 0 0 0 a a a b c d e f g ",
"f h i i j h j k l l l l l l l l e m n o e p ",
"5 9 q r h k i k j j i s 8 r 5 s s k s t h j ",
"5 9 u s k s r v w v s s i h x h s i i u h h ",
"8 3 y z s A r B C D E E E F B t r r w y 8 5 ",
"7 G H I r J B q K L L M N O P x z t Q H 4 6 ",
"9 R S T x J t Q 4 R 4 , G 4 q U J J q V 6 5 ",
"8 G W q T J X z U I I Y U Y x J Q J J Z ` h ",
"8 `  ...+.T +.Q T T t Y I Q u U Y I @.#.G 7 ",
"9 R $.%.&.X I u Y @.Y *.=.X I *.+.&.-.$., 3 ",
"h ` P $.;.>.,.,.'.'.'.'.'.'.'.'.).!.$.s G 7 ",
"r 9 G ` G ~.{.~.~.~.~.~.~.~.~.~.].~., G 8 s ",
"v k j 5 ` 4 7 v 9 9 9 9 9 9 9 9 v h h k i i ",
"P r w B s B P j P P P P P P P P P v j i s i ",
"s i k P r w r s s s s s s s s s r B B B B s ",
"w B s B B P s r r r r r r r r r r r B i i B "};
