/* XPM */
static char * stick_xpm[] = {
"22 22 120 2",
"  	c None",
". 	c #F5F4F9",
"+ 	c #F4F3F8",
"@ 	c #F4F3F9",
"# 	c #F5F4FA",
"$ 	c #F6F5FB",
"% 	c #F4F3FB",
"& 	c #F4F4F4",
"* 	c #F5F5F5",
"= 	c #F3F3F3",
"- 	c #EFEFEF",
"; 	c #EFEFF1",
"> 	c #F0F0F2",
", 	c #EFEFED",
"' 	c #ECECEA",
") 	c #EDEDEB",
"! 	c #EBEBE9",
"~ 	c #ECECEC",
"{ 	c #EDEDED",
"] 	c #EBEAE8",
"^ 	c #EAEAE8",
"/ 	c #EBEDEA",
"( 	c #EBEAEF",
"_ 	c #EAE9EE",
": 	c #EBEBED",
"< 	c #ECECEE",
"[ 	c #EAEAEC",
"} 	c #EAE9E7",
"| 	c #E9E9E7",
"1 	c #E9EBE8",
"2 	c #E9E8ED",
"3 	c #EBE9EA",
"4 	c #EAE8E9",
"5 	c #E8E8E8",
"6 	c #E9E9E9",
"7 	c #EAEAEA",
"8 	c #E8EAE9",
"9 	c #E8EAE7",
"0 	c #E8E7EC",
"a 	c #E9E9EB",
"b 	c #EBE9EC",
"c 	c #E9E7EA",
"d 	c #E6E4E7",
"e 	c #E4E4E4",
"f 	c #E6E6E6",
"g 	c #E7E7E7",
"h 	c #E6E8E7",
"i 	c #E6E6E8",
"j 	c #E7E7E9",
"k 	c #E8E8EA",
"l 	c #E5E5E5",
"m 	c #EBEBEB",
"n 	c #E1DFE2",
"o 	c #DFDFE1",
"p 	c #E1E1E3",
"q 	c #E5E5E7",
"r 	c #E3E3E5",
"s 	c #E2E3E5",
"t 	c #E1E1E1",
"u 	c #E3E3E3",
"v 	c #E0E0DE",
"w 	c #E4E4E2",
"x 	c #E8E8E6",
"y 	c #D5D5D5",
"z 	c #DEDEDE",
"A 	c #E2E2E2",
"B 	c #E0E0E0",
"C 	c #DCDCDC",
"D 	c #C7C7C7",
"E 	c #DFDFDF",
"F 	c #4A4A4A",
"G 	c #0A0A0A",
"H 	c #131313",
"I 	c #121212",
"J 	c #111111",
"K 	c #494949",
"L 	c #C9C9C9",
"M 	c #BEBEBE",
"N 	c #DBDBDB",
"O 	c #DDDDDD",
"P 	c #D6D6D6",
"Q 	c #D7D7D7",
"R 	c #666666",
"S 	c #3D3D3D",
"T 	c #3C3C3C",
"U 	c #DADADA",
"V 	c #D9D9D9",
"W 	c #C0C0C0",
"X 	c #BDBDBD",
"Y 	c #D3D3D3",
"Z 	c #D8D8D8",
"` 	c #575757",
" .	c #5D5D5D",
"..	c #D1D1D1",
"+.	c #B2B2B2",
"@.	c #CDCDCD",
"#.	c #C3C3C3",
"$.	c #D4D4D4",
"%.	c #D2D2D2",
"&.	c #EEEEEE",
"*.	c #A4A4A4",
"=.	c #CBCBCB",
"-.	c #CECECE",
";.	c #A6A6A6",
">.	c #AAAAAA",
",.	c #C8C8C8",
"'.	c #CFCFCF",
").	c #D0D0D0",
"!.	c #CCCCCC",
"~.	c #BBBBBB",
"{.	c #B4B4B4",
"].	c #CACACA",
"^.	c #B8B8B8",
"/.	c #989898",
"(.	c #8D8D8D",
"_.	c #929292",
":.	c #939393",
"<.	c #909090",
"[.	c #979797",
"}.	c #F8F8F8",
". + @ @ # $ @ @ @ @ @ % % % & & * & = = & * ",
"- ; ; ; ; > ; ; ; ; ; ; ; ; , , , , , , , , ",
"' ' ) ) ' ! ' ~ ~ ~ ~ ~ ~ ~ ~ ~ ~ ~ { { ~ ~ ",
"] ! ' ' ! ^ ' ' ' ' ' / / / ( ( _ : < < : [ ",
"} } ^ ^ ^ | ^ ^ ^ ^ 1 1 1 1 2 2 2 2 _ _ _ 2 ",
"3 4 4 5 6 7 6 6 6 8 8 8 9 9 0 2 2 2 0 a [ : ",
"b c d e f 6 g g g h h h h h i j k j l l 5 m ",
"c d n o p q r r r s s s s s t u e u v v w x ",
"l g y z e z z A B A g C g z t B t e C y f 5 ",
"f g D E A z f t F G H I J K A C z t z L f 5 ",
"7 6 M N O C P Q l R S T R e O C U z V W 6 g ",
"~ m X Y Z V z V Z C `  .y Y y O P C ..X { l ",
"6 ~ +.y P P P @.B Z #.#.O U $.Q P Z %.+.&.f ",
"e ~ *.P y $.%.Z =.$.z P Z -.V @.P %.y ;.{ g ",
"l ~ >.,.'...%.P %.)...y @.P $.!.%.!.,.>.~ g ",
"6 &.~.{.D -.@.=.!.'.!.L ..].L ..@.].{.^.&.f ",
"e &.E ^./.(._._._._._._._._.:.:.<.[.^.E ~ e ",
"z g &.- = }.= = = = = = = = = * = { ~ { f C ",
"B B t e e A f f f f f f f f A l 7 ~ 5 u t A ",
"B z E u u E E E E E E E E E u E O z O N C E ",
"O C O O z z z z z z z z z z z C N C E t B z ",
"O B B z O z C C C C C C C C C z E O O z O N "};
