/* XPM */
static char * toolbar_xpm[] = {
"25 25 131 2",
"  	c #F6F6F6",
". 	c #F6F5F6",
"+ 	c #F5F5F5",
"@ 	c #F5F5F6",
"# 	c #F6F5F5",
"$ 	c #F5F6F5",
"% 	c #F6F6F5",
"& 	c #F4F4F4",
"* 	c #F4F4F5",
"= 	c #F4F5F4",
"- 	c #F5F4F4",
"; 	c #F5F4F5",
"> 	c #F3F3F3",
", 	c #F4F3F3",
"' 	c #F3F4F3",
") 	c #F3F3F4",
"! 	c #F2F2F2",
"~ 	c #F2F2F3",
"{ 	c #F3F3F2",
"] 	c #F2F3F2",
"^ 	c #F3F2F2",
"/ 	c #F1F1F1",
"( 	c #F1F2F1",
"_ 	c #F0F0F0",
": 	c #F0EFF0",
"< 	c #F0F0EF",
"[ 	c #EFF0F0",
"} 	c #EEEFEF",
"| 	c #EFEEEF",
"1 	c #EFEFEF",
"2 	c #EFEFEE",
"3 	c #EEEEEF",
"4 	c #EDEEEE",
"5 	c #EEEEEE",
"6 	c #EDEDEE",
"7 	c #EEEDEE",
"8 	c #EEEEED",
"9 	c #EDEDEC",
"0 	c #EDEDED",
"a 	c #ECEDED",
"b 	c #EDECEC",
"c 	c #ECECEC",
"d 	c #ECEDEC",
"e 	c #EDECED",
"f 	c #ECECED",
"g 	c #ECECEB",
"h 	c #EBECEC",
"i 	c #EBEBEC",
"j 	c #EBECEB",
"k 	c #ECEBEC",
"l 	c #EBEBEB",
"m 	c #ECEBEB",
"n 	c #EBEAEB",
"o 	c #EBEBEA",
"p 	c #EAEAEA",
"q 	c #EAEAEB",
"r 	c #EAEBEA",
"s 	c #EBEAEA",
"t 	c #EAEBEB",
"u 	c #E9EAEA",
"v 	c #EAEAE9",
"w 	c #E9EAE9",
"x 	c #EAE9E9",
"y 	c #EAE9EA",
"z 	c #E9E9EA",
"A 	c #E8E8E9",
"B 	c #E9E8E8",
"C 	c #E8E8E8",
"D 	c #E8E9E8",
"E 	c #E9E9E8",
"F 	c #E9E9E9",
"G 	c #E8E9E9",
"H 	c #E9E8E9",
"I 	c #E7E8E7",
"J 	c #E7E7E7",
"K 	c #E8E8E7",
"L 	c #E8E7E7",
"M 	c #E7E7E8",
"N 	c #E7E8E8",
"O 	c #E8E7E8",
"P 	c #E7E6E6",
"Q 	c #E6E6E6",
"R 	c #E6E6E7",
"S 	c #E6E7E7",
"T 	c #E6E7E6",
"U 	c #E7E7E6",
"V 	c #E7E6E7",
"W 	c #E6E5E5",
"X 	c #E6E6E5",
"Y 	c #E5E6E5",
"Z 	c #E5E5E6",
"` 	c #E5E6E6",
" .	c #E5E5E5",
"..	c #E6E5E6",
"+.	c #E4E4E4",
"@.	c #E4E5E4",
"#.	c #E4E4E5",
"$.	c #E5E4E4",
"%.	c #E3E3E3",
"&.	c #E3E3E4",
"*.	c #E4E3E3",
"=.	c #E3E4E3",
"-.	c #E2E3E2",
";.	c #E2E2E2",
">.	c #E2E2E3",
",.	c #E3E3E2",
"'.	c #E1E1E1",
").	c #E1E1E0",
"!.	c #E0E1E1",
"~.	c #E0E0E0",
"{.	c #E0E0DF",
"].	c #E0DFE0",
"^.	c #DFE0E0",
"/.	c #DEDFDF",
"(.	c #DFDFDF",
"_.	c #DEDEDF",
":.	c #DFDFDE",
"<.	c #DFDEDF",
"[.	c #DEDEDE",
"}.	c #DEDEDD",
"|.	c #DDDDDE",
"1.	c #DDDEDD",
"2.	c #DEDDDE",
"3.	c #DEDDDD",
"4.	c #DDDEDE",
"5.	c #DCDDDD",
"6.	c #DDDDDD",
"7.	c #DDDDDC",
"8.	c #DDDCDD",
"9.	c #DDDCDC",
"0.	c #DCDDDC",
"                                                  ",
". + @ # + $ + # + # $ + + + + @ # + % + $ + @ % # ",
"& * = & & * & = & = = & & & = = & - ; & & * = & & ",
"> > > > & > > > > > > > > > , > > > > ' ) > > > > ",
"! ~ ! ! ! ! { ! ~ ! ] ~ ~ ~ ^ ! ! ! ! ^ ^ ! ! ~ ! ",
"/ / / / / / / / / / / / / / / / / / / / / / / / ( ",
"_ _ _ _ _ _ _ : _ < _ _ _ _ [ _ _ : _ _ _ : _ _ < ",
"} } | 1 1 1 } 1 1 1 1 1 2 1 | 1 1 1 1 1 3 | 2 1 1 ",
"4 4 5 5 5 5 5 6 7 5 5 5 8 5 5 5 8 7 5 5 5 5 5 7 5 ",
"9 0 a a 0 b c 9 d 0 a 0 0 e 9 f 0 f 0 a b 9 d 0 b ",
"g c h c i c j c c i k k c i l m k i h c l h g c g ",
"n n o p p q o p r p q o q l l o r n o s o t t r l ",
"u v u w w x y x z p p y y y x z w y z z z v p p z ",
"A B C D C A E A E C F C F B G B B H E G D B G G D ",
"I J K L K I K M J L N L O I J K O K N O J O N I N ",
"P Q P R Q Q Q S R T Q U U P Q P V T S P Q S P P U ",
"W W W X Y Z `  .Z Z Z .. .Z W  . . . .Y  . .W W  .",
"+.+.@.+.+.#.@.+.+.+. .+.+.$.#.+.+.+.+.#.+.#.#.+.#.",
"%.%.%.%.%.%.%.%.%.&.%.%.%.%.&.%.%.%.%.&.*.%.=.&.&.",
"-.;.;.;.;.;.;.;.;.;.-.>.-.;.;.;.;.;.,.>.;.;.;.;.;.",
"'.'.'.'.'.'.'.'.).'.'.'.'.!.'.'.'.'.'.'.'.'.'.'.'.",
"~.~.~.~.{.~.~.~.].~.~.~.~.~.~.~.~.~.~.^.~.~.~.~.~.",
"/.(./._.:.(.(.(.(.(.(.<.:.(.(.(.(.(.:.(.(.(.(./.<.",
"[.}.[.[.[.[.[.[.[.[.[.[.}.|.[.}.[.1.}.2.[.[.3.[.4.",
"5.6.7.7.6.8.6.8.6.9.5.7.6.6.6.0.0.9.6.6.5.8.6.7.6."};
