/* XPM */
static char * toolbar_xpm[] = {
"20 20 62 1",
" 	c #353535",
".	c #333333",
"+	c #333332",
"@	c #323333",
"#	c #2F2F2F",
"$	c #2E2F2F",
"%	c #2F2E2F",
"&	c #2F2F2E",
"*	c #2F2E2E",
"=	c #2B2B2A",
"-	c #2B2A2B",
";	c #2A2A2B",
">	c #2A2B2B",
",	c #2B2B2B",
"'	c #2B2A2A",
")	c #272727",
"!	c #262627",
"~	c #272626",
"{	c #262626",
"]	c #262727",
"^	c #272627",
"/	c #272726",
"(	c #262726",
"_	c #232222",
":	c #232223",
"<	c #232323",
"[	c #222323",
"}	c #222223",
"|	c #222322",
"1	c #222222",
"2	c #1E1F1F",
"3	c #1E1E1E",
"4	c #1F1E1F",
"5	c #1E1E1F",
"6	c #1F1F1E",
"7	c #1F1E1E",
"8	c #1F1F1F",
"9	c #1E1F1E",
"0	c #1B1A1A",
"a	c #1A1A1B",
"b	c #1A1A1A",
"c	c #1B1B1A",
"d	c #1A1B1A",
"e	c #1A1B1B",
"f	c #171617",
"g	c #161616",
"h	c #171616",
"i	c #161716",
"j	c #161617",
"k	c #171716",
"l	c #121212",
"m	c #131312",
"n	c #131212",
"o	c #121213",
"p	c #121312",
"q	c #131213",
"r	c #0E0E0E",
"s	c #0E0F0E",
"t	c #0F0E0E",
"u	c #0E0E0F",
"v	c #0A0A0A",
"w	c #0A090A",
"                    ",
".+..@+@.............",
"##$%#&###$#*###$&&##",
"=-;>-,,>,,,=,,,=-,',",
"))!~~{!]{^!/]^~~/(^(",
"_:<<[[}[}|_<:<1::|}_",
"23455674867433956653",
"0abbbca000cbdbededeb",
"fgfhfgggihijghkggggh",
"llmnooonnollopnlqolp",
"rsrrrrturrrrrussrrtr",
"vvvvvvvvvvvvvvvvvvvv",
"vvvvvvvvvvvvvvvvvvvv",
"vvvvvvvvvvvvvvvvvvvv",
"vvvvvvvvvvvvvvvvvvvv",
"vvvvvvvvvvvvvvvvvvvv",
"vvvvvvvvvvvvvvvvvvvv",
"vvvvvvvvvvvwvvvvvvvv",
"vvvvvvvvvvvvvvvvvvvv",
"vvvvvvvvvvvvvvvvvvvv"};
